<svg width="312" height="192" xmlns="http://www.w3.org/2000/svg" xmlns:xlink="http://www.w3.org/1999/xlink" overflow="hidden"><defs><clipPath id="clip0"><rect x="0" y="0" width="312" height="192"/></clipPath><clipPath id="clip1"><rect x="221" y="9" width="28" height="25"/></clipPath><clipPath id="clip2"><rect x="221" y="9" width="28" height="26"/></clipPath><clipPath id="clip3"><rect x="221" y="9" width="28" height="26"/></clipPath><clipPath id="clip4"><rect x="53" y="14" width="44" height="37"/></clipPath><clipPath id="clip5"><rect x="53" y="14" width="44" height="37"/></clipPath><clipPath id="clip6"><rect x="53" y="14" width="44" height="37"/></clipPath><clipPath id="clip7"><rect x="58" y="151" width="8" height="8"/></clipPath><clipPath id="clip8"><rect x="58" y="151" width="8" height="8"/></clipPath><clipPath id="clip9"><rect x="58" y="151" width="8" height="8"/></clipPath><clipPath id="clip10"><path d="M84.4489 82.863 118.209 106.956 95.6948 138.504 61.9344 114.411Z" fill-rule="evenodd" clip-rule="evenodd"/></clipPath><clipPath id="clip11"><path d="M84.4489 82.863 118.209 106.956 95.6948 138.504 61.9344 114.411Z" fill-rule="evenodd" clip-rule="evenodd"/></clipPath><clipPath id="clip12"><path d="M84.4489 82.863 118.209 106.956 95.6948 138.504 61.9344 114.411Z" fill-rule="evenodd" clip-rule="evenodd"/></clipPath><clipPath id="clip13"><rect x="215" y="114" width="30" height="25"/></clipPath><clipPath id="clip14"><rect x="215" y="114" width="30" height="25"/></clipPath><clipPath id="clip15"><rect x="215" y="114" width="30" height="25"/></clipPath><clipPath id="clip16"><rect x="149" y="76" width="28" height="25"/></clipPath><clipPath id="clip17"><rect x="149" y="76" width="28" height="25"/></clipPath><clipPath id="clip18"><rect x="149" y="76" width="28" height="25"/></clipPath></defs><g clip-path="url(#clip0)"><rect x="0" y="0" width="312" height="192" fill="#FFFFFF"/><g clip-path="url(#clip1)"><g clip-path="url(#clip2)"><g clip-path="url(#clip3)"><path d="M5.88021 7.66146C5.67599 7.45891 5.67463 7.12911 5.87719 6.9249 5.87818 6.92391 5.87922 6.92286 5.88021 6.92187L6.92187 5.88021C7.12609 5.67599 7.45724 5.67599 7.66146 5.88021 7.86568 6.08443 7.86568 6.41557 7.66146 6.61979L6.61979 7.66146C6.41724 7.86568 6.08745 7.86703 5.88323 7.66448 5.88224 7.66349 5.8812 7.66245 5.88021 7.66146ZM5.05729 5.88021C4.85473 5.67599 4.52496 5.67463 4.32073 5.87719 4.31972 5.87818 4.31871 5.87922 4.31771 5.88021L3.27604 6.92187C3.07181 7.12443 3.07046 7.45422 3.27302 7.65844 3.27403 7.65943 3.27503 7.66047 3.27604 7.66146 3.4786 7.86568 3.80837 7.86703 4.0126 7.66448 4.01361 7.66349 4.01462 7.66245 4.01562 7.66146L5.05729 6.61979C5.26151 6.41724 5.26286 6.08745 5.06031 5.88323 5.05931 5.88224 5.0583 5.8812 5.05729 5.88021ZM23.9583 12.5 23.9583 20.3125C23.9583 20.6002 23.7252 20.8333 23.4375 20.8333L20.3125 20.8333C20.0248 20.8333 19.7917 20.6002 19.7917 20.3125L19.7917 12.5C19.7917 11.3494 20.7244 10.4167 21.875 10.4167 23.0256 10.4167 23.9583 11.3494 23.9583 12.5ZM22.9167 12.5C22.9167 11.9247 22.4503 11.4583 21.875 11.4583 21.2997 11.4583 20.8333 11.9247 20.8333 12.5L20.8333 19.7917 22.9167 19.7917ZM19.7917 7.8125C19.7917 6.66193 20.7244 5.72917 21.875 5.72917 23.0256 5.72917 23.9583 6.66193 23.9583 7.8125 23.9583 8.96307 23.0256 9.89583 21.875 9.89583 20.7244 9.89583 19.7917 8.96307 19.7917 7.8125ZM20.8333 7.8125C20.8333 8.38781 21.2997 8.85417 21.875 8.85417 22.4503 8.85417 22.9167 8.38781 22.9167 7.8125 22.9167 7.23719 22.4503 6.77083 21.875 6.77083 21.2997 6.77083 20.8333 7.23719 20.8333 7.8125ZM19.2708 12.5 19.2708 20.3125C19.2708 20.6002 19.0377 20.8333 18.75 20.8333L15.625 20.8333C15.3373 20.8333 15.1042 20.6002 15.1042 20.3125L15.1042 12.5C15.1042 11.3494 16.0369 10.4167 17.1875 10.4167 18.3381 10.4167 19.2708 11.3494 19.2708 12.5ZM18.2292 12.5C18.2292 11.9247 17.7628 11.4583 17.1875 11.4583 16.6122 11.4583 16.1458 11.9247 16.1458 12.5L16.1458 19.7917 18.2292 19.7917ZM19.2708 7.8125C19.2708 8.96307 18.3381 9.89583 17.1875 9.89583 16.0369 9.89583 15.1042 8.96307 15.1042 7.8125 15.1042 6.66193 16.0369 5.72917 17.1875 5.72917 18.3381 5.72917 19.2708 6.66193 19.2708 7.8125ZM18.2292 7.8125C18.2292 7.23719 17.7628 6.77083 17.1875 6.77083 16.6122 6.77083 16.1458 7.23719 16.1458 7.8125 16.1458 8.38781 16.6122 8.85417 17.1875 8.85417 17.7628 8.85417 18.2292 8.38781 18.2292 7.8125ZM14.5833 12.5 14.5833 20.3125C14.5833 20.6002 14.3502 20.8333 14.0625 20.8333L1.5625 20.8333C1.27485 20.8333 1.04167 20.6002 1.04167 20.3125 1.04167 20.0248 1.27485 19.7917 1.5625 19.7917L1.5625 14.5833C1.27485 14.5833 1.04167 14.3502 1.04167 14.0625 1.04167 13.7748 1.27485 13.5417 1.5625 13.5417L4.6875 13.5417 4.6875 9.375 2.08333 9.375C1.79569 9.375 1.5625 9.14182 1.5625 8.85417L1.5625 4.6875C1.5625 4.39985 1.79569 4.16667 2.08333 4.16667L8.85417 4.16667C9.14182 4.16667 9.375 4.39985 9.375 4.6875L9.375 8.85417C9.375 9.14182 9.14182 9.375 8.85417 9.375L5.72917 9.375 5.72917 13.5417 10.4167 13.5417 10.4167 12.5C10.4167 11.3494 11.3494 10.4167 12.5 10.4167 13.6506 10.4167 14.5833 11.3494 14.5833 12.5ZM2.60417 8.33333 8.33333 8.33333 8.33333 5.20833 2.60417 5.20833ZM2.60417 14.5833 2.60417 17.7083 10.4167 17.7083 10.4167 14.5833ZM2.60417 19.7917 10.4167 19.7917 10.4167 18.75 2.60417 18.75ZM13.5417 12.5C13.5417 11.9247 13.0753 11.4583 12.5 11.4583 11.9247 11.4583 11.4583 11.9247 11.4583 12.5L11.4583 19.7917 13.5417 19.7917ZM14.5833 7.8125C14.5833 8.96307 13.6506 9.89583 12.5 9.89583 11.3494 9.89583 10.4167 8.96307 10.4167 7.8125 10.4167 6.66193 11.3494 5.72917 12.5 5.72917 13.6506 5.72917 14.5833 6.66193 14.5833 7.8125ZM13.5417 7.8125C13.5417 7.23719 13.0753 6.77083 12.5 6.77083 11.9247 6.77083 11.4583 7.23719 11.4583 7.8125 11.4583 8.38781 11.9247 8.85417 12.5 8.85417 13.0753 8.85417 13.5417 8.38781 13.5417 7.8125Z" transform="matrix(1.12 0 0 1 221 9)"/></g></g></g><g clip-path="url(#clip4)"><g clip-path="url(#clip5)"><g clip-path="url(#clip6)"><path d="M35.52 20.572C35.52 18.5 33.892 16.798 31.82 16.576 32.19 15.836 32.338 14.948 32.264 14.06 32.116 11.248 29.674 9.028 26.862 8.954 24.198 8.954 21.978 10.73 21.46 13.172 20.646 12.21 19.388 11.618 17.982 11.766 16.428 11.914 15.17 12.95 14.652 14.356 14.356 15.17 14.356 15.984 14.578 16.724 13.024 17.316 11.914 18.796 11.914 20.498 11.914 22.792 13.69 24.346 16.058 24.346L16.132 24.346C16.576 25.382 17.908 25.752 18.574 25.752 19.832 25.752 20.498 25.53 21.756 24.346 21.756 24.346 22.644 25.752 24.716 25.752 26.714 25.752 27.676 24.568 27.824 24.42 32.782 26.788 35.52 22.866 35.52 20.572Z" stroke="#000000" stroke-width="1.48" stroke-miterlimit="10" fill="none" transform="matrix(1.18919 0 0 1 53 14)"/><path d="M20.72 5.624C20.72 7.91267 16.413 9.768 11.1 9.768 5.78702 9.768 1.48 7.91267 1.48 5.624 1.48 3.33533 5.78702 1.48 11.1 1.48 16.413 1.48 20.72 3.33533 20.72 5.624Z" stroke="#000000" stroke-width="1.48" stroke-miterlimit="10" fill="none" transform="matrix(1.18919 0 0 1 53 14)"/><path d="M14.356 15.466C13.32 15.614 12.21 15.688 11.1 15.688 5.772 15.688 1.48 13.838 1.48 11.544" stroke="#000000" stroke-width="1.48" stroke-miterlimit="10" fill="none" transform="matrix(1.18919 0 0 1 53 14)"/><path d="M11.914 21.534C11.618 21.534 11.322 21.534 11.1 21.534 5.772 21.534 1.48 19.684 1.48 17.39" stroke="#000000" stroke-width="1.48" stroke-miterlimit="10" fill="none" transform="matrix(1.18919 0 0 1 53 14)"/><path d="M18.648 25.826C16.872 26.714 14.06 27.38 11.1 27.38 5.772 27.38 1.48 25.53 1.48 23.236" stroke="#000000" stroke-width="1.48" stroke-miterlimit="10" fill="none" transform="matrix(1.18919 0 0 1 53 14)"/><path d="M20.72 12.58 20.72 5.624" stroke="#000000" stroke-width="1.48" stroke-miterlimit="10" fill="none" transform="matrix(1.18919 0 0 1 53 14)"/><path d="M1.48 23.236 1.48 5.624" stroke="#000000" stroke-width="1.48" stroke-miterlimit="10" fill="none" transform="matrix(1.18919 0 0 1 53 14)"/><path d="M11.1 27.38 11.1 31.08" stroke="#000000" stroke-width="1.48" stroke-miterlimit="10" fill="none" transform="matrix(1.18919 0 0 1 53 14)"/><path d="M13.32 33.3C13.32 34.5261 12.3261 35.52 11.1 35.52 9.87393 35.52 8.88 34.5261 8.88 33.3 8.88 32.0739 9.87393 31.08 11.1 31.08 12.3261 31.08 13.32 32.0739 13.32 33.3Z" stroke="#000000" stroke-width="1.48" stroke-miterlimit="10" fill="none" transform="matrix(1.18919 0 0 1 53 14)"/><path d="M13.32 33.3 19.98 33.3" stroke="#000000" stroke-width="1.48" stroke-miterlimit="10" fill="none" transform="matrix(1.18919 0 0 1 53 14)"/><path d="M2.22 33.3 8.88 33.3" stroke="#000000" stroke-width="1.48" stroke-miterlimit="10" fill="none" transform="matrix(1.18919 0 0 1 53 14)"/></g></g></g><rect x="241.5" y="21.5001" width="59" height="26" stroke="#5B9BD5" stroke-width="1.32283" stroke-miterlimit="8" fill="#FFFFFF" fill-opacity="0.901961"/><text font-family="Consolas,Consolas_MSFontService,sans-serif" font-weight="400" font-size="11" transform="translate(244.375 31)">Selection <tspan font-size="11" x="11.7333" y="12">Queue</tspan></text><rect x="46.5001" y="8.50005" width="62" height="13" stroke="#5B9BD5" stroke-width="1.32283" stroke-miterlimit="8" fill="#FFFFFF" fill-opacity="0.94902"/><text font-family="Consolas,Consolas_MSFontService,sans-serif" font-weight="400" font-size="11" transform="translate(59.0911 18)">Record</text><path d="M92.9338 145 69.0662 145C68.4921 145 68 145.462 68 146.091L68 160.783 68.3281 161.161 70.1325 161.161 70.1325 157.802 91.8265 157.802 91.8265 166.198 72.347 166.198C71.8549 166.575 71.2808 166.827 70.5836 166.827L68 166.827 68 177.909C68 178.496 68.4921 179 69.0662 179L92.9338 179C93.5079 179 94 178.496 94 177.909L94 146.091C94 145.504 93.5079 145 92.9338 145ZM91.8675 176.817 70.1325 176.817 70.1325 168.422 91.8265 168.422 91.8265 176.817ZM91.8675 155.578 70.1325 155.578 70.1325 147.183 91.8265 147.183 91.8265 155.578Z" fill-rule="evenodd"/><path d="M71.2857 154 72.7143 154C72.8572 154 73 153.884 73 153.767L73 149.233C73 149.116 72.8572 149 72.7143 149L71.2857 149C71.1428 149 71 149.116 71 149.233L71 153.767C71 153.884 71.1428 154 71.2857 154Z" fill-rule="evenodd"/><path d="M73 162 73 159.261C73 159.13 72.8572 159 72.7143 159L71.2857 159C71.1428 159 71 159.13 71 159.261L71 160.652C71.8571 160.826 72.5714 161.348 73 162Z" fill-rule="evenodd"/><path d="M74.1429 154 74.8571 154C74.9286 154 75 153.884 75 153.767L75 149.233C75 149.116 74.9286 149 74.8571 149L74.1429 149C74.0714 149 74 149.116 74 149.233L74 153.767C74 153.884 74.0714 154 74.1429 154Z" fill-rule="evenodd"/><path d="M76.2857 154 77.7143 154C77.8572 154 78.0001 153.884 78.0001 153.767L78.0001 149.233C78.0001 149.116 77.8572 149 77.7143 149L76.2857 149C76.1428 149 76 149.116 76 149.233L76 153.767C76 153.884 76.1428 154 76.2857 154Z" fill-rule="evenodd"/><path d="M79.2857 154 80.7143 154C80.8572 154 81 153.884 81 153.767L81 149.233C81 149.116 80.8572 149 80.7143 149L79.2857 149C79.1429 149 79 149.116 79 149.233L79 153.767C79 153.884 79.1429 154 79.2857 154Z" fill-rule="evenodd"/><path d="M83.46 153.988 84.8158 153.488C84.961 153.443 85.0578 153.261 84.961 153.125L82.9274 148.173C82.879 148.037 82.6853 147.946 82.54 148.037L81.1842 148.491C81.039 148.536 80.9421 148.718 81.039 148.854L83.0726 153.806C83.1695 153.943 83.3147 154.034 83.46 153.988Z" fill-rule="evenodd"/><path d="M85.8308 153.988 86.8601 153.488C86.9704 153.443 87.044 153.261 86.9704 153.125L85.4265 148.173C85.3897 148.037 85.2427 147.946 85.1324 148.037L84.1399 148.491C84.0296 148.536 83.9561 148.718 84.0296 148.854L85.5368 153.806C85.6103 153.943 85.7206 154.034 85.8308 153.988Z" fill-rule="evenodd"/><path d="M71.2857 175 72.7143 175C72.8572 175 73 174.884 73 174.767L73 170.233C73 170.116 72.8572 170 72.7143 170L71.2857 170C71.1428 170 71 170.116 71 170.233L71 174.767C71 174.923 71.1428 175 71.2857 175Z" fill-rule="evenodd"/><path d="M74.1429 175 74.8571 175C74.9286 175 75 174.884 75 174.767L75 170.233C75 170.116 74.9286 170 74.8571 170L74.1429 170C74.0714 170 74 170.116 74 170.233L74 174.767C74 174.923 74.0714 175 74.1429 175Z" fill-rule="evenodd"/><path d="M76.2857 175 77.7143 175C77.8572 175 78.0001 174.884 78.0001 174.767L78.0001 170.233C78.0001 170.116 77.8572 170 77.7143 170L76.2857 170C76.1428 170 76 170.116 76 170.233L76 174.767C76 174.923 76.1428 175 76.2857 175Z" fill-rule="evenodd"/><path d="M79.2857 175 80.7143 175C80.8572 175 81 174.884 81 174.767L81 170.233C81 170.116 80.8572 170 80.7143 170L79.2857 170C79.1429 170 79 170.116 79 170.233L79 174.767C79 174.923 79.1429 175 79.2857 175Z" fill-rule="evenodd"/><path d="M82.1429 175 82.8572 175C82.9286 175 83 174.884 83 174.767L83 170.233C83 170.116 82.9286 170 82.8572 170L82.1429 170C82.0714 170 82 170.116 82 170.233L82 174.767C82 174.923 82.0714 175 82.1429 175Z" fill-rule="evenodd"/><path d="M84.2857 175 85.7143 175C85.8572 175 86.0001 174.884 86.0001 174.767L86.0001 170.233C86.0001 170.116 85.8572 170 85.7143 170L84.2857 170C84.1429 170 84 170.116 84 170.233L84 174.767C84 174.923 84.1429 175 84.2857 175Z" fill-rule="evenodd"/><path d="M87.2857 175 88.7143 175C88.8572 175 89 174.884 89 174.767L89 170.233C89 170.116 88.8572 170 88.7143 170L87.2857 170C87.1429 170 87 170.116 87 170.233L87 174.767C87 174.923 87.1429 175 87.2857 175Z" fill-rule="evenodd"/><path d="M89.2936 175 90.7156 175C90.8578 175 91.0001 174.884 91.0001 174.767L91.0001 170.233C91.0001 170.116 90.8578 170 90.7156 170L89.2936 170C89.1514 170 89.0092 170.116 89.0092 170.233L89.0092 174.767C88.9618 174.923 89.104 175 89.2936 175Z" fill-rule="evenodd"/><path d="M74.8571 165C74.9286 165 75 164.862 75 164.723L75 159.277C75 159.138 74.9286 159 74.8571 159L74.1429 159C74.0714 159 74 159.138 74 159.277L74 164.677C74 164.815 74.0714 164.954 74.1429 164.954L74.8571 164.954Z" fill-rule="evenodd"/><path d="M77.7143 165C77.8572 165 78.0001 164.862 78.0001 164.723L78.0001 159.277C78.0001 159.138 77.8572 159 77.7143 159L76.2857 159C76.1428 159 76 159.138 76 159.277L76 164.677C76 164.815 76.1428 164.954 76.2857 164.954L77.7143 164.954Z" fill-rule="evenodd"/><path d="M86 163.286 86 164.714C86 164.857 86.1163 165 86.2326 165L90.7674 165C90.8837 165 91 164.857 91 164.714L91 163.286C91 163.143 90.8837 163 90.7674 163L86.2326 163C86.1163 163 86 163.095 86 163.286Z" fill-rule="evenodd"/><path d="M90.7587 160 85.2786 160C85.1394 160 85 160.143 85 160.286L85 161.714C85 161.857 85.1394 162 85.2786 162L90.7123 162C90.8516 162 90.9909 161.857 90.9909 161.714L90.9909 160.286C91.0373 160.143 90.898 160 90.7587 160Z" fill-rule="evenodd"/><path d="M80.839 164.964 81.8611 164.466C81.9706 164.421 82.0437 164.24 81.9706 164.104L80.4374 159.172C80.4009 159.036 80.2549 158.946 80.1454 159.036L79.1232 159.534C79.0137 159.579 78.9772 159.715 79.0137 159.851L80.5469 164.828C80.5834 164.964 80.7295 165.054 80.839 164.964Z" fill-rule="evenodd"/><path d="M72 163.701C72 162.974 71.3862 162.376 70.6409 162.376L67.528 162.376 65.3797 160.068C64.7659 159.385 63.8452 159 62.9245 159L60.5131 159C59.417 159 58.4087 159.513 57.7949 160.41L54.2435 165.453C53.8051 166.051 53.9805 166.863 54.5943 167.291 54.8135 167.462 55.0766 167.504 55.3396 167.504 55.7781 167.504 56.2165 167.291 56.4357 166.949L58.2333 164.385 58.2333 177.675C58.2333 178.402 58.8471 179 59.5924 179 60.3378 179 60.9516 178.402 60.9516 177.675L60.9516 169.47 62.2669 169.47 62.2669 177.633C62.2669 178.359 62.8807 178.957 63.626 178.957 64.3713 178.957 64.9851 178.359 64.9851 177.633L64.9851 163.573 65.9058 164.598C66.1689 164.855 66.5196 165.026 66.9142 165.026L70.6409 165.026C71.4301 165.026 72 164.427 72 163.701Z" fill-rule="evenodd"/><g clip-path="url(#clip7)"><g clip-path="url(#clip8)"><g clip-path="url(#clip9)"><path d="M62.9247 152.165C63.0719 152.213 63.2141 152.272 63.3501 152.341 63.5515 152.444 63.7837 152.413 63.9509 152.26L64.3316 151.914C64.4019 151.85 64.5096 151.853 64.5768 151.92L65.0801 152.423C65.1473 152.491 65.1498 152.599 65.086 152.669L64.7399 153.049C64.5877 153.216 64.5564 153.449 64.6591 153.65 64.7282 153.786 64.7876 153.928 64.8355 154.075 64.9054 154.29 65.0914 154.432 65.3172 154.443L65.8308 154.467C65.9255 154.471 66 154.549 66 154.644L66 155.356C66 155.451 65.9255 155.529 65.8308 155.534L65.3167 155.558C65.0912 155.568 64.9052 155.71 64.8351 155.925 64.7872 156.072 64.7278 156.214 64.6587 156.35 64.556 156.551 64.5873 156.784 64.7395 156.951L65.086 157.332C65.1498 157.402 65.1473 157.51 65.0801 157.577L64.5766 158.08C64.5094 158.147 64.4015 158.15 64.3313 158.086L63.9511 157.74C63.7839 157.588 63.5515 157.556 63.3501 157.659 63.2141 157.728 63.0721 157.788 62.9249 157.835 62.7101 157.905 62.5682 158.091 62.5575 158.317L62.5333 158.831C62.5289 158.925 62.4508 159 62.3559 159L61.6439 159C61.549 159 61.4709 158.925 61.4665 158.831L61.4423 158.317C61.4316 158.091 61.2899 157.905 61.0753 157.835 60.9281 157.787 60.7859 157.728 60.6499 157.659 60.4485 157.556 60.2163 157.587 60.0491 157.74L59.6685 158.086C59.5981 158.15 59.4904 158.147 59.4232 158.08L58.9199 157.577C58.8527 157.509 58.8502 157.401 58.914 157.331L59.2601 156.951C59.4123 156.784 59.4436 156.551 59.3409 156.35 59.2718 156.214 59.2124 156.072 59.1645 155.925 59.0946 155.71 58.9086 155.568 58.6828 155.557L58.1692 155.533C58.0745 155.529 58 155.451 58 155.356L58 154.644C58 154.549 58.0745 154.471 58.1692 154.466L58.6833 154.442C58.9088 154.432 59.0948 154.29 59.1649 154.075 59.2128 153.928 59.2722 153.786 59.3413 153.65 59.444 153.448 59.4127 153.216 59.2605 153.049L58.914 152.668C58.8502 152.598 58.8527 152.49 58.9199 152.423L59.4234 151.92C59.4906 151.853 59.5985 151.85 59.6687 151.914L60.0491 152.26C60.2163 152.413 60.4485 152.444 60.6499 152.341 60.7859 152.272 60.9283 152.213 61.0753 152.165 61.2901 152.095 61.4318 151.909 61.4425 151.683L61.4667 151.169C61.4711 151.075 61.5492 151 61.6441 151L62.3561 151C62.451 151 62.5291 151.075 62.5335 151.169L62.5577 151.683C62.5684 151.909 62.7101 152.095 62.9247 152.165ZM62 153.744C62.6938 153.744 63.2565 154.306 63.2565 155 63.2565 155.694 62.6938 156.256 62 156.256 61.3062 156.256 60.7435 155.694 60.7435 155 60.7435 154.306 61.3062 153.744 62 153.744Z" fill-rule="evenodd"/></g></g></g><rect x="6.50005" y="80.5001" width="63" height="15" stroke="#000000" stroke-width="1.32283" stroke-miterlimit="8" fill="#EBDDC3"/><text font-family="Consolas,Consolas_MSFontService,sans-serif" font-weight="700" font-size="12" transform="translate(13.8372 92)">Trainer</text><rect x="57.5001" y="173.5" width="94" height="13" stroke="#5B9BD5" stroke-width="1.32283" stroke-miterlimit="8" fill="#FFFFFF" fill-opacity="0.94902"/><text font-family="Consolas,Consolas_MSFontService,sans-serif" font-weight="400" font-size="11" transform="translate(65.7341 183)">Model Library</text><g clip-path="url(#clip10)"><g clip-path="url(#clip11)"><g clip-path="url(#clip12)"><path d="M13.3533 31.8952C13.1762 31.8952 13.0006 31.8952 12.8295 31.8846L12.831 31.8831C12.6069 31.874 12.4343 31.6848 12.4449 31.4622 12.4555 31.2381 12.6432 31.0656 12.8673 31.0762 13.0293 31.0837 13.1898 31.0868 13.3518 31.0868 13.6954 31.0868 14.0391 31.055 14.3752 30.9883 14.5948 30.9444 14.8082 31.0852 14.8521 31.3048 14.8976 31.5228 14.7568 31.7363 14.5372 31.7802 14.1481 31.8574 13.7515 31.8953 13.3533 31.8953ZM11.2504 31.6727C11.2201 31.6727 11.1883 31.6696 11.1595 31.662 10.6009 31.5364 10.0589 31.3396 9.55019 31.0777 9.35187 30.9747 9.27466 30.731 9.3776 30.5341 9.48054 30.3358 9.72429 30.2586 9.92262 30.3616 10.3723 30.5917 10.8492 30.7643 11.3412 30.8763 11.5411 30.9217 11.6743 31.111 11.6516 31.3138 11.6274 31.5182 11.4563 31.6727 11.2504 31.6727ZM15.9587 31.2154C15.7771 31.2154 15.6181 31.0943 15.5696 30.9202 15.5197 30.7461 15.5923 30.5599 15.7483 30.466 16.1616 30.2162 16.5204 29.8801 16.7975 29.4834 16.9247 29.3002 17.176 29.2548 17.3591 29.3819 17.5423 29.5107 17.5878 29.762 17.4606 29.9451 17.1185 30.4341 16.6794 30.8475 16.1677 31.1563 16.1056 31.1942 16.0329 31.2154 15.9587 31.2154ZM8.43888 30.1738C8.3314 30.1723 8.22994 30.1299 8.15575 30.0542 7.74697 29.6409 7.4033 29.167 7.13835 28.6507 7.08839 28.5553 7.07932 28.4448 7.11111 28.3434 7.14444 28.2404 7.21556 28.1556 7.31094 28.1072 7.50931 28.0042 7.75302 28.0815 7.85445 28.2798 8.08157 28.7234 8.37528 29.1291 8.72499 29.4849 8.84007 29.6015 8.87336 29.7741 8.81131 29.924 8.74922 30.0754 8.60236 30.1738 8.43888 30.1738ZM17.7637 28.6462C17.6411 28.6462 17.5245 28.5902 17.4473 28.4948 17.3716 28.3979 17.3428 28.2722 17.3701 28.1526 17.4775 27.6621 17.5169 27.1594 17.4851 26.6598 17.473 26.4357 17.6441 26.2465 17.8666 26.2344 18.0907 26.2223 18.28 26.3933 18.2921 26.6159 18.3269 27.1927 18.283 27.7696 18.1589 28.3328 18.1165 28.516 17.953 28.6462 17.7637 28.6462ZM6.94321 27.3548 6.94472 27.3548C6.75848 27.3548 6.59803 27.2291 6.55109 27.0504 6.42392 26.5009 6.34672 25.9422 6.31943 25.3805 6.31187 25.2715 6.34823 25.1655 6.4209 25.0853 6.49206 25.0051 6.59349 24.9566 6.70248 24.9505 6.80848 24.9445 6.91445 24.9824 6.99317 25.0535 7.07343 25.1262 7.12033 25.2261 7.12642 25.3336 7.15064 25.8468 7.2218 26.357 7.33838 26.8582 7.38834 27.0747 7.25509 27.2897 7.0401 27.3426 7.00832 27.3502 6.97654 27.3548 6.94472 27.3563ZM17.6424 25.4487C17.4577 25.4487 17.2957 25.323 17.2518 25.1428 17.1231 24.6371 16.9611 24.1421 16.7673 23.6591 16.684 23.4517 16.787 23.217 16.9944 23.1353 17.2003 23.052 17.4349 23.1534 17.5182 23.3608 17.7242 23.8786 17.8952 24.4085 18.0315 24.9475 18.0618 25.0686 18.0345 25.1958 17.9588 25.2942 17.8816 25.3911 17.7635 25.4487 17.6394 25.4487ZM6.75678 24.1436 6.72046 24.1436C6.61295 24.133 6.51454 24.0815 6.4464 23.9998 6.37827 23.918 6.34497 23.812 6.35404 23.7045 6.40555 23.1519 6.48881 22.6039 6.60388 22.0619 6.62508 21.9558 6.68864 21.865 6.77798 21.806 6.86732 21.7485 6.97782 21.7273 7.08231 21.75 7.18676 21.7712 7.27912 21.8347 7.33664 21.9241 7.39567 22.0149 7.41536 22.1239 7.39416 22.2284 7.28517 22.7401 7.20645 23.2564 7.15951 23.7772 7.13983 23.9846 6.96572 24.1436 6.75678 24.1436ZM16.4719 22.4479C16.3205 22.4479 16.1812 22.3631 16.1131 22.2284 15.883 21.7803 15.621 21.3155 15.3349 20.8476 15.2274 20.6569 15.2895 20.4161 15.4757 20.3026 15.6619 20.1891 15.9042 20.2436 16.0238 20.4268 16.3205 20.9112 16.5885 21.3957 16.8307 21.8605L16.8307 21.859C16.8958 21.9846 16.8897 22.1345 16.8171 22.2541 16.7429 22.3737 16.6127 22.4464 16.4734 22.4479ZM22.16 21.4245 22.16 21.423C21.6286 21.426 21.1017 21.3291 20.6067 21.1383 20.3977 21.0566 20.2948 20.8234 20.3766 20.6145 20.4568 20.407 20.6915 20.3041 20.8989 20.3859 21.3516 20.5585 21.8345 20.6357 22.319 20.613 22.5416 20.6039 22.7293 20.7765 22.7384 21.0005 22.749 21.2231 22.5749 21.4108 22.3523 21.4199L22.1631 21.4199ZM23.8996 21.0626 23.8996 21.0611C23.7149 21.0626 23.5529 20.937 23.5075 20.7583 23.4621 20.5797 23.5438 20.3919 23.7058 20.3041 24.0631 20.1133 24.2584 19.7137 24.1903 19.3139 24.1858 19.0914 24.3614 18.9067 24.5854 18.9021 24.808 18.8961 24.9927 19.0732 24.9972 19.2973 25.0729 19.9998 24.7141 20.678 24.0904 21.0111 24.0313 21.0429 23.9662 21.0596 23.9011 21.0596ZM7.41966 20.9945C7.29098 20.9945 7.16835 20.9324 7.09262 20.8264 7.01692 20.722 6.99572 20.5857 7.03661 20.4631 7.18044 20.0301 7.34245 19.6107 7.52109 19.2171 7.56349 19.1232 7.60132 19.0293 7.63918 18.9385L7.63918 18.937C7.72244 18.7311 7.95863 18.6297 8.16455 18.7129 8.37198 18.7962 8.4719 19.0324 8.38861 19.2383 8.34776 19.3398 8.30838 19.4427 8.25842 19.5456 8.09641 19.915 7.94049 20.3102 7.80422 20.7175 7.74972 20.8825 7.59527 20.9945 7.41966 20.9945ZM19.4165 20.2844 19.418 20.2829C19.3105 20.2829 19.209 20.242 19.1333 20.1663 18.7215 19.753 18.3794 19.2746 18.1235 18.7508 18.0236 18.5494 18.1053 18.3057 18.3067 18.2073 18.508 18.1074 18.7503 18.1907 18.8502 18.3905 19.0667 18.8356 19.3559 19.2413 19.7056 19.5926 19.8222 19.7077 19.857 19.8818 19.7949 20.0332 19.7328 20.1846 19.5845 20.283 19.421 20.283ZM14.829 19.6698 14.829 19.6683C14.6882 19.6683 14.5565 19.5941 14.4839 19.473 14.1977 18.9976 13.9222 18.5222 13.6693 18.0589 13.5679 17.8636 13.6406 17.6244 13.8328 17.5184 14.0266 17.414 14.2674 17.4806 14.3779 17.6713 14.6261 18.1255 14.8941 18.5903 15.1742 19.0551 15.2499 19.1793 15.2514 19.3352 15.1803 19.4624 15.1091 19.5896 14.9744 19.6683 14.829 19.6683ZM24.3852 18.1074C24.1839 18.1104 24.0113 17.9635 23.981 17.7637 23.8796 17.196 23.8614 16.6146 23.925 16.0408 23.9401 15.9348 23.9962 15.8394 24.0809 15.7743 24.1657 15.7092 24.2732 15.6804 24.3792 15.6956 24.6002 15.7259 24.7562 15.9287 24.7259 16.1498 24.6729 16.6479 24.691 17.1505 24.7789 17.6441 24.7971 17.7607 24.7622 17.8803 24.685 17.9696 24.6063 18.0574 24.4942 18.1089 24.3761 18.1074ZM8.41419 17.9318 8.37784 17.9318C8.27187 17.9227 8.17347 17.8712 8.10533 17.7894 8.03568 17.7062 8.00239 17.6002 8.01297 17.4942 8.06599 17.0279 7.99181 16.557 7.79647 16.1316 7.70717 15.9318 7.79193 15.6971 7.98874 15.6032 8.18556 15.5079 8.42175 15.5866 8.52318 15.7804 8.78208 16.3375 8.88351 16.9552 8.81693 17.5669 8.79724 17.7743 8.62314 17.9318 8.41415 17.9318ZM17.9719 17.4473C17.7782 17.4473 17.6131 17.311 17.5768 17.1202 17.4663 16.557 17.4315 15.9817 17.4708 15.4094 17.4875 15.1853 17.6797 15.0173 17.9038 15.034 18.1264 15.0491 18.2944 15.2429 18.2793 15.4655 18.2445 15.9681 18.2748 16.4738 18.3701 16.9673 18.3944 17.0869 18.3626 17.2096 18.2853 17.3019 18.2081 17.3943 18.0946 17.4488 17.9735 17.4488ZM13.283 16.8341C13.1271 16.8341 12.9847 16.7433 12.9181 16.6025 12.6759 16.0923 12.4488 15.5896 12.2504 15.1051 12.2111 15.0067 12.2111 14.8947 12.2535 14.7963 12.2943 14.6979 12.3731 14.6191 12.473 14.5782 12.6789 14.495 12.9151 14.5934 12.9999 14.8008 13.1906 15.2702 13.4086 15.7592 13.6463 16.2543L13.6448 16.2543C13.7054 16.3799 13.6978 16.5268 13.6236 16.6434 13.5494 16.7614 13.4208 16.8326 13.2815 16.8326ZM31.4102 15.5684C31.2557 15.5684 31.1149 15.4806 31.0468 15.3413 30.8273 14.8947 30.5426 14.4813 30.2035 14.118 30.0491 13.9561 30.0566 13.7002 30.2171 13.5473 30.3791 13.3928 30.635 13.4004 30.7894 13.5609 31.1846 13.9848 31.5162 14.4662 31.772 14.9871 31.8326 15.1112 31.825 15.2596 31.7508 15.3777 31.6782 15.4958 31.5479 15.5684 31.4087 15.5684ZM7.08479 15.1809C7.00607 15.1793 6.92886 15.1551 6.86224 15.1112 6.44137 14.8432 5.98262 14.6404 5.50117 14.5056 5.28769 14.4435 5.16506 14.2179 5.22866 14.0045 5.25893 13.9015 5.32858 13.8152 5.42396 13.7637 5.51784 13.7123 5.62985 13.7002 5.73283 13.732 6.28998 13.8879 6.81984 14.1256 7.30738 14.4375 7.39668 14.4965 7.45877 14.5889 7.48148 14.6933 7.50268 14.7978 7.48148 14.9083 7.42241 14.9976 7.34823 15.1112 7.22106 15.1809 7.08479 15.1809ZM24.924 15.0188C24.7711 15.0188 24.6318 14.9326 24.5637 14.7963 24.4955 14.6585 24.5107 14.495 24.6015 14.3724 24.8831 14.0014 25.2177 13.6759 25.5962 13.4034 25.6946 13.3322 25.793 13.2626 25.8899 13.199L25.8884 13.199C26.0746 13.0809 26.3214 13.1339 26.4425 13.3186 26.5636 13.5018 26.5152 13.7501 26.3335 13.8743 26.2472 13.9303 26.1594 13.9923 26.0731 14.0559L26.0716 14.0559C25.7582 14.28 25.4796 14.5495 25.2449 14.8568 25.1692 14.9583 25.0511 15.0173 24.924 15.0188ZM18.2111 14.2649 18.2126 14.2649C18.0794 14.2649 17.9552 14.1998 17.8795 14.0908 17.8038 13.9818 17.7871 13.8425 17.8341 13.7184 18.04 13.1688 18.3413 12.6586 18.7228 12.2135 18.7925 12.1302 18.8924 12.0772 18.9999 12.0681 19.1074 12.059 19.2149 12.0938 19.2966 12.165 19.3784 12.2347 19.4298 12.3361 19.4359 12.4436 19.4435 12.5526 19.4072 12.6586 19.3345 12.7388 19.015 13.1143 18.7637 13.5427 18.5926 14.0045 18.532 14.1619 18.3806 14.2649 18.2126 14.2649ZM4.03724 14.2119 3.98879 14.2119C3.47556 14.1483 2.95624 14.1211 2.43847 14.1302 2.21591 14.1392 2.02817 13.9666 2.0191 13.7441 2.01002 13.5215 2.18261 13.3338 2.40517 13.3247 2.96383 13.3111 3.524 13.3368 4.07964 13.405 4.30219 13.4307 4.45966 13.632 4.43389 13.8531 4.41122 14.0559 4.2401 14.2089 4.03724 14.2119ZM12.0795 13.8425 12.0795 13.841C11.9024 13.841 11.7465 13.7274 11.6935 13.5594 11.5254 13.031 11.3876 12.4935 11.2802 11.95 11.2574 11.8441 11.2786 11.7335 11.3377 11.6412 11.3983 11.5503 11.4921 11.4883 11.5996 11.4686 11.7071 11.4474 11.8176 11.4716 11.907 11.5337 11.9963 11.5958 12.0553 11.6927 12.0735 11.8001 12.1734 12.3119 12.3021 12.8191 12.4611 13.3172 12.4989 13.4398 12.4777 13.5746 12.4021 13.6775 12.3248 13.7804 12.2037 13.8425 12.0765 13.8425ZM29.1738 13.3505 29.1723 13.3505C29.1269 13.3505 29.0815 13.3429 29.039 13.3278 28.5985 13.1764 28.1246 13.1552 27.6734 13.2687 27.4554 13.3187 27.2389 13.1839 27.189 12.9674 27.1375 12.7494 27.2723 12.5329 27.4903 12.4814 28.0913 12.3331 28.7212 12.3603 29.3071 12.5632 29.4933 12.6283 29.6053 12.8175 29.572 13.0113 29.5387 13.2066 29.3691 13.3474 29.1723 13.3474ZM20.1052 11.682C19.9568 11.682 19.819 11.6003 19.7494 11.4686 19.6797 11.3384 19.6873 11.1794 19.7691 11.0552 20.0371 10.6828 20.1779 10.2362 20.1733 9.77894 20.1643 9.55488 20.3368 9.36714 20.5609 9.35807 20.7835 9.349 20.9712 9.5231 20.9803 9.74565 20.9939 10.374 20.8062 10.9901 20.4428 11.5019 20.3686 11.6154 20.2415 11.6836 20.1052 11.682ZM11.5086 10.6722C11.2861 10.6722 11.1044 10.4905 11.1044 10.268 11.0923 9.68507 11.174 9.1037 11.3466 8.54655 11.4178 8.33458 11.6449 8.21951 11.8568 8.28916 12.0688 8.36032 12.1838 8.58744 12.1142 8.79937 11.9674 9.27327 11.8992 9.76832 11.9098 10.2634 11.9098 10.3709 11.8674 10.4738 11.7917 10.5495 11.716 10.6252 11.6131 10.6676 11.5056 10.6676ZM19.9734 8.69949C19.8523 8.69949 19.7387 8.645 19.6615 8.55264 19.3421 8.18168 18.956 7.87437 18.5245 7.64577 18.4306 7.59279 18.361 7.50648 18.3307 7.40354 18.302 7.30059 18.3141 7.19006 18.3656 7.09618 18.473 6.90088 18.7183 6.82972 18.9136 6.9372 19.436 7.21579 19.9023 7.58822 20.2868 8.03785 20.3868 8.15746 20.408 8.32551 20.3413 8.46632 20.2747 8.60864 20.1324 8.69949 19.9765 8.69949ZM12.5958 7.73507C12.4792 7.73507 12.3687 7.68511 12.2915 7.5988 12.2204 7.51857 12.1825 7.41257 12.1885 7.30509 12.1961 7.19761 12.2446 7.09615 12.3263 7.02499 12.7851 6.62985 13.3347 6.3528 13.9251 6.21804 14.0295 6.19231 14.1386 6.20897 14.2309 6.26347 14.3217 6.31951 14.3884 6.40881 14.4141 6.51179 14.4398 6.61624 14.4232 6.72674 14.3687 6.81759 14.3127 6.90995 14.2233 6.97658 14.1189 7.00231 13.6556 7.10676 13.2241 7.32327 12.8623 7.63213 12.7896 7.69721 12.6942 7.73356 12.5958 7.73507ZM17.2196 7.10525C17.1864 7.10676 17.1515 7.10223 17.1182 7.09312 16.6232 6.96596 16.1175 6.89026 15.6073 6.87057 15.3847 6.85999 15.2121 6.67225 15.2212 6.4497 15.2318 6.22715 15.4195 6.05305 15.6421 6.06363 16.2098 6.08634 16.773 6.17114 17.3226 6.31346 17.4255 6.3392 17.5149 6.4073 17.5679 6.49966 17.6223 6.59202 17.6375 6.70105 17.6118 6.8055 17.5648 6.98262 17.4043 7.10525 17.2196 7.10525Z" stroke="#000000" stroke-width="1.26043" transform="matrix(0.871056 0.621634 -0.580898 0.813976 84.4489 82.863)"/><path d="M29.674 17.0067C29.7088 16.987 29.7451 16.9719 29.7845 16.9628L32.1297 16.4147 33.7769 14.6585 33.7769 14.657C33.8859 14.5404 34.054 14.498 34.2054 14.5495 34.3568 14.6025 34.4627 14.7403 34.4764 14.8992L34.9442 20.5556C34.9548 20.71 34.8776 20.8569 34.7428 20.9341 34.6096 21.0113 34.4431 21.0052 34.3144 20.9189L29.6498 17.685 29.6514 17.685C29.5378 17.6063 29.4727 17.4746 29.4772 17.3368 29.4833 17.199 29.559 17.0734 29.6786 17.0037ZM32.5415 17.1293 32.543 17.1293C32.5082 17.1505 32.4718 17.1641 32.4324 17.1732L30.8534 17.5426 34.0676 19.7712 33.7451 15.8741 32.6353 17.0565C32.6081 17.0853 32.5763 17.1095 32.543 17.1292Z" stroke="#000000" stroke-width="1.26043" transform="matrix(0.871056 0.621634 -0.580898 0.813976 84.4489 82.863)"/></g></g></g><rect x="139.5" y="129.5" width="68" height="15" stroke="#000000" stroke-width="1.32283" stroke-miterlimit="8" fill="#EBDDC3"/><text font-family="Consolas,Consolas_MSFontService,sans-serif" font-weight="700" font-size="12" transform="translate(150.119 141)">Sampler</text><rect x="235.5" y="74.5001" width="71" height="15" stroke="#000000" stroke-width="1.32283" stroke-miterlimit="8" fill="#EBDDC3"/><text font-family="Consolas,Consolas_MSFontService,sans-serif" font-weight="700" font-size="12" transform="translate(244.273 86)">Selector</text><g clip-path="url(#clip13)"><g clip-path="url(#clip14)"><g clip-path="url(#clip15)"><path d="M24 13.9C24 12.5 22.9 11.35 21.5 11.2 21.75 10.7 21.85 10.1 21.8 9.5 21.7 7.6 20.05 6.1 18.15 6.05 16.35 6.05 14.85 7.25 14.5 8.9 13.95 8.25 13.1 7.85 12.15 7.95 11.1 8.05 10.25 8.75 9.9 9.7 9.7 10.25 9.7 10.8 9.85 11.3 8.8 11.7 8.05 12.7 8.05 13.85 8.05 15.4 9.25 16.45 10.85 16.45L10.9 16.45C11.2 17.15 12.1 17.4 12.55 17.4 13.4 17.4 13.85 17.25 14.7 16.45 14.7 16.45 15.3 17.4 16.7 17.4 18.05 17.4 18.7 16.6 18.8 16.5 22.15 18.1 24 15.45 24 13.9Z" stroke="#000000" stroke-miterlimit="10" fill="none" transform="matrix(1.2 0 0 1 215 114)"/><path d="M14 3.8C14 5.3464 11.0899 6.6 7.5 6.6 3.91015 6.6 1 5.3464 1 3.8 1 2.2536 3.91015 1 7.5 1 11.0899 1 14 2.2536 14 3.8Z" stroke="#000000" stroke-miterlimit="10" fill="none" transform="matrix(1.2 0 0 1 215 114)"/><path d="M9.7 10.45C9 10.55 8.25 10.6 7.5 10.6 3.9 10.6 1 9.35 1 7.8" stroke="#000000" stroke-miterlimit="10" fill="none" transform="matrix(1.2 0 0 1 215 114)"/><path d="M8.05 14.55C7.85 14.55 7.65 14.55 7.5 14.55 3.9 14.55 1 13.3 1 11.75" stroke="#000000" stroke-miterlimit="10" fill="none" transform="matrix(1.2 0 0 1 215 114)"/><path d="M12.6 17.45C11.4 18.05 9.5 18.5 7.5 18.5 3.9 18.5 1 17.25 1 15.7" stroke="#000000" stroke-miterlimit="10" fill="none" transform="matrix(1.2 0 0 1 215 114)"/><path d="M14 8.5 14 3.8" stroke="#000000" stroke-miterlimit="10" fill="none" transform="matrix(1.2 0 0 1 215 114)"/><path d="M1 15.7 1 3.8" stroke="#000000" stroke-miterlimit="10" fill="none" transform="matrix(1.2 0 0 1 215 114)"/><path d="M7.5 18.5 7.5 21" stroke="#000000" stroke-miterlimit="10" fill="none" transform="matrix(1.2 0 0 1 215 114)"/><path d="M9 22.5C9 23.3284 8.32843 24 7.5 24 6.67157 24 6 23.3284 6 22.5 6 21.6716 6.67157 21 7.5 21 8.32843 21 9 21.6716 9 22.5Z" stroke="#000000" stroke-miterlimit="10" fill="none" transform="matrix(1.2 0 0 1 215 114)"/><path d="M9 22.5 13.5 22.5" stroke="#000000" stroke-miterlimit="10" fill="none" transform="matrix(1.2 0 0 1 215 114)"/><path d="M1.5 22.5 6 22.5" stroke="#000000" stroke-miterlimit="10" fill="none" transform="matrix(1.2 0 0 1 215 114)"/></g></g></g><rect x="146.5" y="25.5001" width="71" height="15" stroke="#000000" stroke-width="1.32283" stroke-miterlimit="8" fill="#EBDDC3"/><text font-family="Consolas,Consolas_MSFontService,sans-serif" font-weight="700" font-size="12" transform="translate(148.233 36)">Calculator</text><rect x="75.5001" y="77.5001" width="67" height="26" stroke="#5B9BD5" stroke-width="1.32283" stroke-miterlimit="8" fill="#FFFFFF" fill-opacity="0.94902"/><text font-family="Consolas,Consolas_MSFontService,sans-serif" font-weight="400" font-size="11" transform="translate(79.135 87)">Trajectory <tspan font-size="11" x="17.6" y="12">List</tspan></text><path d="M0-2 86.3175-2 86.3175 9.97144 82.3175 9.97144 82.3175 0 84.3175 2 0 2ZM90.3175 7.97144 84.3175 19.9714 78.3175 7.97144Z" fill="#DD8047" transform="matrix(1.83697e-16 1 1 -1.83697e-16 37 95)"/><path d="M0-2 122.051-2 122.051 80.3578 118.051 80.3578 118.051 0 120.051 2 0 2ZM126.051 78.3578 120.051 90.3578 114.051 78.3578Z" fill="#DD8047" transform="matrix(1 0 0 -1 151 179.358)"/><path d="M102 173.263 102 135 129.351 135 129.351 139 104 139 106 137 106 173.263ZM127.351 131 139.351 137 127.351 143Z" fill="#A5AB81"/><rect x="218.5" y="137.5" width="69" height="26" stroke="#5B9BD5" stroke-width="1.32283" stroke-miterlimit="8" fill="#FFFFFF" fill-opacity="0.94902"/><text font-family="Consolas,Consolas_MSFontService,sans-serif" font-weight="400" font-size="11" transform="translate(226.003 148)">Structure <tspan font-size="11" x="5.86667" y="12">Choices</tspan></text><path d="M0-2 35.8332-2 35.8332 20.7504 31.8332 20.7504 31.8332 0 33.8332 2 0 2ZM39.8332 18.7504 33.8332 30.7504 27.8332 18.7504Z" fill="#A5AB81" transform="matrix(1.83697e-16 1 1 -1.83697e-16 108 103)"/><path d="M0-2 12.1817-2 12.1817 63.7368 8.18173 63.7368 8.18173 0 10.1817 2 0 2ZM16.1817 61.7368 10.1817 73.7368 4.18173 61.7368Z" fill="#DD8047" transform="matrix(-1.83697e-16 -1 -1 1.83697e-16 181.737 24.1817)"/><path d="M0-2 39.2194-2 39.2194 34.7458 35.2194 34.7458 35.2194 0 37.2194 2 0 2ZM43.2194 32.7458 37.2194 44.7458 31.2194 32.7458Z" fill="#A5AB81" transform="matrix(-1 1.22465e-16 1.22465e-16 1 145.219 32)"/><g clip-path="url(#clip16)"><g clip-path="url(#clip17)"><g clip-path="url(#clip18)"><path d="M5.88021 7.66146C5.67599 7.45891 5.67463 7.12911 5.87719 6.9249 5.87818 6.92391 5.87922 6.92286 5.88021 6.92187L6.92187 5.88021C7.12609 5.67599 7.45724 5.67599 7.66146 5.88021 7.86568 6.08443 7.86568 6.41557 7.66146 6.61979L6.61979 7.66146C6.41724 7.86568 6.08745 7.86703 5.88323 7.66448 5.88224 7.66349 5.8812 7.66245 5.88021 7.66146ZM5.05729 5.88021C4.85473 5.67599 4.52496 5.67463 4.32073 5.87719 4.31972 5.87818 4.31871 5.87922 4.31771 5.88021L3.27604 6.92187C3.07181 7.12443 3.07046 7.45422 3.27302 7.65844 3.27403 7.65943 3.27503 7.66047 3.27604 7.66146 3.4786 7.86568 3.80837 7.86703 4.0126 7.66448 4.01361 7.66349 4.01462 7.66245 4.01562 7.66146L5.05729 6.61979C5.26151 6.41724 5.26286 6.08745 5.06031 5.88323 5.05931 5.88224 5.0583 5.8812 5.05729 5.88021ZM23.9583 12.5 23.9583 20.3125C23.9583 20.6002 23.7252 20.8333 23.4375 20.8333L20.3125 20.8333C20.0248 20.8333 19.7917 20.6002 19.7917 20.3125L19.7917 12.5C19.7917 11.3494 20.7244 10.4167 21.875 10.4167 23.0256 10.4167 23.9583 11.3494 23.9583 12.5ZM22.9167 12.5C22.9167 11.9247 22.4503 11.4583 21.875 11.4583 21.2997 11.4583 20.8333 11.9247 20.8333 12.5L20.8333 19.7917 22.9167 19.7917ZM19.7917 7.8125C19.7917 6.66193 20.7244 5.72917 21.875 5.72917 23.0256 5.72917 23.9583 6.66193 23.9583 7.8125 23.9583 8.96307 23.0256 9.89583 21.875 9.89583 20.7244 9.89583 19.7917 8.96307 19.7917 7.8125ZM20.8333 7.8125C20.8333 8.38781 21.2997 8.85417 21.875 8.85417 22.4503 8.85417 22.9167 8.38781 22.9167 7.8125 22.9167 7.23719 22.4503 6.77083 21.875 6.77083 21.2997 6.77083 20.8333 7.23719 20.8333 7.8125ZM19.2708 12.5 19.2708 20.3125C19.2708 20.6002 19.0377 20.8333 18.75 20.8333L15.625 20.8333C15.3373 20.8333 15.1042 20.6002 15.1042 20.3125L15.1042 12.5C15.1042 11.3494 16.0369 10.4167 17.1875 10.4167 18.3381 10.4167 19.2708 11.3494 19.2708 12.5ZM18.2292 12.5C18.2292 11.9247 17.7628 11.4583 17.1875 11.4583 16.6122 11.4583 16.1458 11.9247 16.1458 12.5L16.1458 19.7917 18.2292 19.7917ZM19.2708 7.8125C19.2708 8.96307 18.3381 9.89583 17.1875 9.89583 16.0369 9.89583 15.1042 8.96307 15.1042 7.8125 15.1042 6.66193 16.0369 5.72917 17.1875 5.72917 18.3381 5.72917 19.2708 6.66193 19.2708 7.8125ZM18.2292 7.8125C18.2292 7.23719 17.7628 6.77083 17.1875 6.77083 16.6122 6.77083 16.1458 7.23719 16.1458 7.8125 16.1458 8.38781 16.6122 8.85417 17.1875 8.85417 17.7628 8.85417 18.2292 8.38781 18.2292 7.8125ZM14.5833 12.5 14.5833 20.3125C14.5833 20.6002 14.3502 20.8333 14.0625 20.8333L1.5625 20.8333C1.27485 20.8333 1.04167 20.6002 1.04167 20.3125 1.04167 20.0248 1.27485 19.7917 1.5625 19.7917L1.5625 14.5833C1.27485 14.5833 1.04167 14.3502 1.04167 14.0625 1.04167 13.7748 1.27485 13.5417 1.5625 13.5417L4.6875 13.5417 4.6875 9.375 2.08333 9.375C1.79569 9.375 1.5625 9.14182 1.5625 8.85417L1.5625 4.6875C1.5625 4.39985 1.79569 4.16667 2.08333 4.16667L8.85417 4.16667C9.14182 4.16667 9.375 4.39985 9.375 4.6875L9.375 8.85417C9.375 9.14182 9.14182 9.375 8.85417 9.375L5.72917 9.375 5.72917 13.5417 10.4167 13.5417 10.4167 12.5C10.4167 11.3494 11.3494 10.4167 12.5 10.4167 13.6506 10.4167 14.5833 11.3494 14.5833 12.5ZM2.60417 8.33333 8.33333 8.33333 8.33333 5.20833 2.60417 5.20833ZM2.60417 14.5833 2.60417 17.7083 10.4167 17.7083 10.4167 14.5833ZM2.60417 19.7917 10.4167 19.7917 10.4167 18.75 2.60417 18.75ZM13.5417 12.5C13.5417 11.9247 13.0753 11.4583 12.5 11.4583 11.9247 11.4583 11.4583 11.9247 11.4583 12.5L11.4583 19.7917 13.5417 19.7917ZM14.5833 7.8125C14.5833 8.96307 13.6506 9.89583 12.5 9.89583 11.3494 9.89583 10.4167 8.96307 10.4167 7.8125 10.4167 6.66193 11.3494 5.72917 12.5 5.72917 13.6506 5.72917 14.5833 6.66193 14.5833 7.8125ZM13.5417 7.8125C13.5417 7.23719 13.0753 6.77083 12.5 6.77083 11.9247 6.77083 11.4583 7.23719 11.4583 7.8125 11.4583 8.38781 11.9247 8.85417 12.5 8.85417 13.0753 8.85417 13.5417 8.38781 13.5417 7.8125Z" transform="matrix(1.12 0 0 1 149 76)"/></g></g></g><path d="M0-2 10.7441-2 10.7441 55.9122 6.74415 55.9122 6.74415 0 8.74415 2 0 2ZM14.7441 53.9122 8.74415 65.9122 2.74415 53.9122Z" fill="#DD8047" transform="matrix(-1 1.22465e-16 1.22465e-16 1 45.7441 14)"/><rect x="173.5" y="74.5001" width="45" height="26" stroke="#5B9BD5" stroke-width="1.32283" stroke-miterlimit="8" fill="#FFFFFF" fill-opacity="0.901961"/><text font-family="Consolas,Consolas_MSFontService,sans-serif" font-weight="400" font-size="11" transform="translate(180.957 85)">Audit <tspan font-size="11" x="0" y="12">Queue</tspan></text><path d="M0-2 8.32882-2 8.32882 34.9802 4.32882 34.9802 4.32882 0 6.32882 2 0 2ZM12.3288 32.9802 6.32882 44.9802 0.328819 32.9802Z" fill="#DD8047" transform="matrix(1.83697e-16 1 1 -1.83697e-16 173 144)"/><path d="M171 128.886 171 112.443 195.302 112.443 193.302 114.443 193.302 110 197.302 110 197.302 116.443 173 116.443 175 114.443 175 128.886ZM189.302 112 195.302 100 201.302 112Z" fill="#A5AB81"/><path d="M0-2 19.3696-2 19.3696 14.2878 17.3696 12.2878 24.7392 12.2878 24.7392 16.2878 15.3696 16.2878 15.3696 0 17.3696 2 0 2ZM22.7392 8.28777 34.7392 14.2878 22.7392 20.2878Z" fill="#A5AB81" transform="matrix(-1.83697e-16 -1 -1 1.83697e-16 195.288 74.7392)"/><path d="M0-2 15.8932-2 15.8932 0.000104987 13.8932-1.99989 17.7865-1.99989 17.7865 2.0001 11.8932 2.0001 11.8932 0 13.8932 2 0 2ZM15.7865-5.99989 27.7865 0.000104987 15.7865 6.0001Z" fill="#DD8047" transform="matrix(-1.83697e-16 -1 -1 1.83697e-16 271 74.7864)"/><path d="M241.13 35.4298 227.065 35.4298 227.065 32 229.065 34 227 34 227 30 231.065 30 231.065 33.4298 229.065 31.4298 241.13 31.4298ZM229 38 217 32 229 26Z" fill="#DD8047"/></g></svg>